<?xml version="1.0" encoding="UTF-8"?>
<svg xmlns="http://www.w3.org/2000/svg" viewBox="0 0 40 40">
  <defs>
    <style>
      .cls-1 {
        fill: #fff;
      }

      .cls-2 {
        fill: none;
        stroke: #211132;
        stroke-linecap: round;
        stroke-linejoin: round;
        stroke-width: 3px;
      }

      .cls-3 {
        fill: #ce142b;
        fill-rule: evenodd;
      }
    </style>
  </defs>
  <rect class="cls-1" width="40" height="40"/>
  <g id="Layer_1" data-name="Layer 1">
    <path class="cls-2" d="M35.12,12.14l-1.09-2c-.92-1.68-2.97-2.27-4.57-1.3-.76.47-1.67.6-2.53.37-.86-.24-1.59-.82-2.03-1.62-.29-.51-.45-1.09-.46-1.69.03-.95-.31-1.87-.94-2.55-.64-.69-1.51-1.08-2.41-1.08h-2.2c-.88,0-1.73.37-2.36,1.04-.62.66-.98,1.56-.97,2.5-.03,1.92-1.52,3.48-3.36,3.48-.56,0-1.11-.17-1.6-.47-1.6-.97-3.65-.39-4.57,1.3l-1.17,2.03c-.92,1.68-.38,3.83,1.21,4.81,1.04.62,1.68,1.78,1.68,3.05s-.64,2.42-1.68,3.05c-1.59.97-2.13,3.11-1.21,4.79l1.1,2.01c.43.83,1.16,1.43,2.02,1.68.86.26,1.77.14,2.56-.32.77-.47,1.67-.6,2.53-.35.86.24,1.59.84,2.02,1.64.28.51.44,1.09.45,1.69,0,1.95,1.49,3.52,3.35,3.52h2.2c1.84,0,3.34-1.57,3.35-3.51,0-.93.35-1.83.98-2.49.63-.66,1.49-1.03,2.38-1.03.56.02,1.11.18,1.59.47,1.61.97,3.65.4,4.57-1.28l1.16-2.03c.45-.81.57-1.76.34-2.67-.23-.9-.78-1.67-1.56-2.14-.77-.46-1.33-1.24-1.56-2.14-.23-.9-.1-1.86.35-2.67.29-.53.71-.98,1.21-1.27,1.59-.98,2.13-3.12,1.22-4.8h0Z"/>
    <path class="cls-3" d="M26.22,13.7c.05.12.09.26.13.44.04.18.06.33.06.47v13.77c0,.13-.04.24-.13.33-.09.08-.2.13-.32.13h-3.33c-.13,0-.23-.04-.31-.13-.08-.08-.12-.19-.12-.33v-4.54c0-.13-.04-.24-.13-.33-.09-.08-.2-.13-.32-.13h-3.47c-.13,0-.24.04-.32.13-.09.08-.13.19-.13.33v4.54c0,.13-.04.24-.12.33s-.18.13-.31.13h-3.33c-.13,0-.24-.04-.32-.13s-.13-.19-.13-.33v-13.85c.02-.13.04-.28.07-.43.03-.15.07-.29.12-.4l2.2-2.32c.11-.05.25-.1.41-.14.16-.04.3-.06.43-.06h6.32c.13,0,.28.02.44.06.17.04.31.09.42.14l2.2,2.32ZM22.19,15.13h-4.38v4.46h4.38v-4.46Z"/>
  </g>
</svg>