<?xml version="1.0" encoding="UTF-8"?>
<svg id="Layer_1" data-name="Layer 1" xmlns="http://www.w3.org/2000/svg" viewBox="0 0 14 15.05">
  <defs>
    <style>
      .cls-1 {
        fill: none;
        stroke: #211132;
        stroke-linecap: round;
        stroke-linejoin: round;
      }

      .cls-2 {
        fill: #ce142b;
        fill-rule: evenodd;
      }
    </style>
  </defs>
  <path class="cls-1" d="M13.31,4.41l-.46-.79c-.38-.67-1.24-.9-1.91-.51-.32.19-.7.24-1.05.15-.36-.09-.66-.32-.85-.64-.12-.2-.19-.43-.19-.67.01-.38-.13-.74-.39-1.01-.27-.27-.63-.43-1-.43h-.92c-.37,0-.72.15-.99.41-.26.26-.41.62-.4.99-.01.76-.64,1.38-1.4,1.38-.23,0-.46-.07-.67-.19-.67-.38-1.52-.16-1.91.51l-.49.8c-.38.67-.16,1.52.51,1.91.43.25.7.71.7,1.21s-.27.96-.7,1.21c-.66.38-.89,1.23-.51,1.9l.46.8c.18.33.48.57.84.67.36.1.74.06,1.07-.13.32-.19.7-.24,1.05-.14.36.1.66.33.84.65.12.2.18.43.19.67,0,.77.62,1.4,1.4,1.4h.92c.77,0,1.39-.62,1.4-1.39,0-.37.15-.73.41-.99.26-.26.62-.41.99-.41.23,0,.46.07.67.19.67.38,1.52.16,1.91-.51l.48-.8c.19-.32.24-.7.14-1.06-.1-.36-.33-.66-.65-.85-.32-.18-.56-.49-.65-.85-.1-.36-.04-.74.14-1.06.12-.21.3-.39.51-.51.66-.39.89-1.24.51-1.9h0Z"/>
  <path class="cls-2" d="M9.59,5.03s.04.1.06.17c.02.07.03.13.03.19v5.46c0,.05-.02.1-.06.13-.04.03-.08.05-.14.05h-1.39c-.05,0-.1-.02-.13-.05-.03-.03-.05-.08-.05-.13v-1.8c0-.05-.02-.1-.06-.13-.04-.03-.08-.05-.14-.05h-1.45c-.05,0-.1.02-.13.05-.04.03-.06.08-.06.13v1.8c0,.05-.02.1-.05.13s-.08.05-.13.05h-1.39c-.05,0-.1-.02-.14-.05s-.06-.08-.06-.13v-5.49c0-.05.02-.11.03-.17.01-.06.03-.11.05-.16l.92-.92s.1-.04.17-.06c.07-.02.13-.02.18-.02h2.64c.05,0,.12,0,.18.02.07.02.13.04.18.06l.92.92ZM7.91,5.6h-1.83v1.77h1.83v-1.77Z"/>
</svg>